<svg width="50" height="50" viewBox="0 0 50 50" fill="none" xmlns="http://www.w3.org/2000/svg">
<rect width="50" height="50" rx="25" fill="#1AD329"/>
<path d="M30 21.4997C30.8284 21.4997 31.5 20.8281 31.5 19.9997C31.5 19.1713 30.8284 18.4997 30 18.4997C29.1715 18.4997 28.5 19.1713 28.5 19.9997C28.5 20.8281 29.1715 21.4997 30 21.4997Z" fill="white"/>
<path d="M29 15.9997C31.76 15.9997 34 18.2397 34 20.9997V28.9997C34 31.7597 31.76 33.9997 29 33.9997H21C18.24 33.9997 16 31.7597 16 28.9997V20.9997C16 18.2397 18.24 15.9997 21 15.9997H25H29Z" stroke="white" stroke-width="1.32653" stroke-linecap="round" stroke-linejoin="round"/>
<path d="M25 20.9995C27.21 20.9995 29 22.7895 29 24.9995C29 27.2095 27.21 28.9995 25 28.9995C22.79 28.9995 21 27.2095 21 24.9995C21 22.7895 22.79 20.9995 25 20.9995Z" stroke="white" stroke-width="1.32653" stroke-linecap="round" stroke-linejoin="round"/>
</svg>
