<svg width="24" height="24" viewBox="0 0 24 24" fill="none" xmlns="http://www.w3.org/2000/svg">
<path fill-rule="evenodd" clip-rule="evenodd" d="M2.02734 11.25C2.21652 8.73474 3.34923 6.38388 5.1985 4.6685C7.04777 2.95313 9.47698 1.99996 11.9993 2C11.1693 2 10.4293 2.364 9.81934 2.921C9.21434 3.475 8.70334 4.249 8.28934 5.163C7.87334 6.083 7.54934 7.159 7.33034 8.326C7.15272 9.29154 7.04643 10.2688 7.01234 11.25H2.02734ZM2.02734 12.75H7.01234C7.04834 13.752 7.15534 14.738 7.33034 15.674C7.55034 16.841 7.87334 17.917 8.28934 18.837C8.70334 19.751 9.21434 20.525 9.81934 21.079C10.4293 21.636 11.1693 22 11.9993 22C6.72934 22 2.41034 17.923 2.02734 12.75Z" fill="white"/>
<path d="M12.0007 3.39502C11.7257 3.39502 11.3707 3.51202 10.9577 3.89002C10.5417 4.27102 10.1247 4.86802 9.75675 5.68102C9.39075 6.48902 9.09375 7.46402 8.88975 8.55402C8.72975 9.41202 8.62975 10.322 8.59375 11.25H15.4077C15.3752 10.3453 15.2762 9.44423 15.1117 8.55402C14.9077 7.46402 14.6118 6.48902 14.2448 5.68102C13.8767 4.86802 13.4607 4.27102 13.0447 3.89102C12.6307 3.51202 12.2757 3.39502 12.0007 3.39502ZM8.88975 15.446C9.09375 16.536 9.39075 17.511 9.75675 18.319C10.1247 19.132 10.5417 19.729 10.9567 20.109C11.3707 20.488 11.7267 20.605 12.0007 20.605C12.2757 20.605 12.6307 20.488 13.0437 20.11C13.4607 19.729 13.8767 19.132 14.2448 18.319C14.6108 17.511 14.9077 16.536 15.1117 15.446C15.2727 14.588 15.3727 13.678 15.4077 12.75H8.59375C8.62875 13.678 8.72875 14.588 8.88975 15.446Z" fill="white"/>
<path d="M12 2C12.831 2 13.57 2.364 14.18 2.921C14.785 3.475 15.297 4.249 15.71 5.163C16.127 6.083 16.45 7.159 16.669 8.326C16.844 9.262 16.951 10.248 16.987 11.25H21.972C21.7828 8.73474 20.6501 6.38388 18.8008 4.6685C16.9516 2.95313 14.5224 1.99996 12 2ZM16.669 15.674C16.45 16.841 16.127 17.917 15.71 18.837C15.297 19.751 14.785 20.525 14.18 21.079C13.57 21.636 12.831 22 12 22C17.27 22 21.589 17.923 21.972 12.75H16.987C16.9529 13.7312 16.8466 14.7085 16.669 15.674Z" fill="white"/>
</svg>
