<svg width="50" height="50" viewBox="0 0 50 50" fill="none" xmlns="http://www.w3.org/2000/svg">
<rect width="50" height="50" rx="25" fill="#1AD329"/>
<path fill-rule="evenodd" clip-rule="evenodd" d="M18 14.2497C17.2707 14.2497 16.5712 14.5394 16.0555 15.0552C15.5397 15.5709 15.25 16.2703 15.25 16.9997C15.25 17.729 15.5397 18.4285 16.0555 18.9442C16.5712 19.46 17.2707 19.7497 18 19.7497C18.7293 19.7497 19.4288 19.46 19.9445 18.9442C20.4603 18.4285 20.75 17.729 20.75 16.9997C20.75 16.2703 20.4603 15.5709 19.9445 15.0552C19.4288 14.5394 18.7293 14.2497 18 14.2497ZM16.75 16.9997C16.75 16.6682 16.8817 16.3502 17.1161 16.1158C17.3505 15.8814 17.6685 15.7497 18 15.7497C18.3315 15.7497 18.6495 15.8814 18.8839 16.1158C19.1183 16.3502 19.25 16.6682 19.25 16.9997C19.25 17.3312 19.1183 17.6492 18.8839 17.8836C18.6495 18.118 18.3315 18.2497 18 18.2497C17.6685 18.2497 17.3505 18.118 17.1161 17.8836C16.8817 17.6492 16.75 17.3312 16.75 16.9997ZM15.25 20.9997C15.25 20.8008 15.329 20.61 15.4697 20.4694C15.6103 20.3287 15.8011 20.2497 16 20.2497H20C20.1989 20.2497 20.3897 20.3287 20.5303 20.4694C20.671 20.61 20.75 20.8008 20.75 20.9997V33.9997C20.75 34.1986 20.671 34.3894 20.5303 34.53C20.3897 34.6707 20.1989 34.7497 20 34.7497H16C15.8011 34.7497 15.6103 34.6707 15.4697 34.53C15.329 34.3894 15.25 34.1986 15.25 33.9997V20.9997ZM16.75 21.7497V33.2497H19.25V21.7497H16.75ZM22.25 20.9997C22.25 20.8008 22.329 20.61 22.4697 20.4694C22.6103 20.3287 22.8011 20.2497 23 20.2497H27C27.1989 20.2497 27.3897 20.3287 27.5303 20.4694C27.671 20.61 27.75 20.8008 27.75 20.9997V21.4337L28.185 21.2467C28.9351 20.9263 29.7307 20.7255 30.543 20.6517C33.318 20.3997 35.75 22.5797 35.75 25.3797V33.9997C35.75 34.1986 35.671 34.3894 35.5303 34.53C35.3897 34.6707 35.1989 34.7497 35 34.7497H31C30.8011 34.7497 30.6103 34.6707 30.4697 34.53C30.329 34.3894 30.25 34.1986 30.25 33.9997V26.9997C30.25 26.6682 30.1183 26.3502 29.8839 26.1158C29.6495 25.8814 29.3315 25.7497 29 25.7497C28.6685 25.7497 28.3505 25.8814 28.1161 26.1158C27.8817 26.3502 27.75 26.6682 27.75 26.9997V33.9997C27.75 34.1986 27.671 34.3894 27.5303 34.53C27.3897 34.6707 27.1989 34.7497 27 34.7497H23C22.8011 34.7497 22.6103 34.6707 22.4697 34.53C22.329 34.3894 22.25 34.1986 22.25 33.9997V20.9997ZM23.75 21.7497V33.2497H26.25V26.9997C26.25 26.2703 26.5397 25.5709 27.0555 25.0552C27.5712 24.5394 28.2707 24.2497 29 24.2497C29.7293 24.2497 30.4288 24.5394 30.9445 25.0552C31.4603 25.5709 31.75 26.2703 31.75 26.9997V33.2497H34.25V25.3797C34.25 23.4757 32.589 21.9717 30.68 22.1457C30.0241 22.2052 29.3817 22.3672 28.776 22.6257L27.296 23.2607C27.1818 23.3097 27.0573 23.3296 26.9336 23.3186C26.8098 23.3076 26.6907 23.266 26.587 23.1976C26.4833 23.1292 26.3982 23.0361 26.3394 22.9267C26.2806 22.8173 26.2499 22.6949 26.25 22.5707V21.7497H23.75Z" fill="white"/>
</svg>
