<svg width="36" height="36" viewBox="0 0 36 36" fill="none" xmlns="http://www.w3.org/2000/svg">
<path d="M13.125 15C13.125 13.7071 13.6386 12.4671 14.5529 11.5529C15.4671 10.6386 16.7071 10.125 18 10.125C19.2929 10.125 20.5329 10.6386 21.4471 11.5529C22.3614 12.4671 22.875 13.7071 22.875 15C22.875 16.2929 22.3614 17.5329 21.4471 18.4471C20.5329 19.3614 19.2929 19.875 18 19.875C16.7071 19.875 15.4671 19.3614 14.5529 18.4471C13.6386 17.5329 13.125 16.2929 13.125 15Z" fill="white"/>
<path fill-rule="evenodd" clip-rule="evenodd" d="M5.66099 13.3155C5.91049 10.3001 7.28433 7.4887 9.50994 5.43898C11.7355 3.38925 14.6503 2.25098 17.676 2.25H18.324C21.3497 2.25098 24.2644 3.38925 26.49 5.43898C28.7157 7.4887 30.0895 10.3001 30.339 13.3155C30.6159 16.6821 29.5765 20.0249 27.4395 22.641L20.25 31.434C19.9775 31.7675 19.6343 32.0363 19.2451 32.2209C18.856 32.4054 18.4307 32.5012 18 32.5012C17.5693 32.5012 17.144 32.4054 16.7549 32.2209C16.3657 32.0363 16.0225 31.7675 15.75 31.434L8.56199 22.641C6.42443 20.0251 5.38453 16.6823 5.66099 13.3155ZM18 7.875C16.1103 7.875 14.2981 8.62567 12.9619 9.96186C11.6257 11.2981 10.875 13.1103 10.875 15C10.875 16.8897 11.6257 18.7019 12.9619 20.0381C14.2981 21.3743 16.1103 22.125 18 22.125C19.8897 22.125 21.7019 21.3743 23.0381 20.0381C24.3743 18.7019 25.125 16.8897 25.125 15C25.125 13.1103 24.3743 11.2981 23.0381 9.96186C21.7019 8.62567 19.8897 7.875 18 7.875Z" fill="white"/>
</svg>
