<svg width="50" height="50" viewBox="0 0 50 50" fill="none" xmlns="http://www.w3.org/2000/svg">
<rect width="50" height="50" rx="25" fill="#FF741F"/>
<path d="M25 14.093C30.523 14.093 35 18.57 35 24.093C35 29.616 30.523 34.093 25 34.093C19.477 34.093 15 29.616 15 24.093C15 18.57 19.477 14.093 25 14.093ZM25 18.093C24.7348 18.093 24.4804 18.1984 24.2929 18.3859C24.1054 18.5734 24 18.8278 24 19.093V24.093C24.0001 24.3582 24.1055 24.6125 24.293 24.8L27.293 27.8C27.4816 27.9822 27.7342 28.083 27.9964 28.0807C28.2586 28.0784 28.5094 27.9732 28.6948 27.7878C28.8802 27.6024 28.9854 27.3516 28.9877 27.0894C28.99 26.8272 28.8892 26.5746 28.707 26.386L26 23.679V19.093C26 18.8278 25.8946 18.5734 25.7071 18.3859C25.5196 18.1984 25.2652 18.093 25 18.093Z" fill="white"/>
</svg>
