<svg width="50" height="50" viewBox="0 0 50 50" fill="none" xmlns="http://www.w3.org/2000/svg">
<path fill-rule="evenodd" clip-rule="evenodd" d="M33.4584 22.7916C34.0436 23.3776 34.3723 24.1718 34.3723 25C34.3723 25.8281 34.0436 26.6224 33.4584 27.2083L21.6751 38.9958C21.0889 39.5818 20.2939 39.9109 19.465 39.9107C18.6361 39.9105 17.8413 39.581 17.2553 38.9948C16.6693 38.4085 16.3403 37.6135 16.3405 36.7847C16.3406 35.9558 16.6701 35.1609 17.2563 34.575L26.8313 25L17.2563 15.425C16.6868 14.8359 16.3715 14.0466 16.3782 13.2273C16.3849 12.4079 16.7132 11.6239 17.2923 11.0443C17.8715 10.4646 18.6551 10.1356 19.4745 10.1281C20.2938 10.1206 21.0834 10.4352 21.673 11.0041L33.4605 22.7896L33.4584 22.7916Z" fill="black"/>
</svg>
