<svg width="24" height="24" viewBox="0 0 24 24" fill="none" xmlns="http://www.w3.org/2000/svg">
<path d="M18.3281 22.4996C17.4131 22.4996 16.1278 22.1686 14.2031 21.0933C11.8626 19.7808 10.0523 18.5691 7.72451 16.2474C5.48013 14.0044 4.38794 12.5522 2.85935 9.77066C1.13247 6.63003 1.42685 4.98378 1.75591 4.28019C2.14779 3.43925 2.72622 2.93628 3.47388 2.43707C3.89854 2.15883 4.34794 1.92032 4.81638 1.72457C4.86326 1.70441 4.90685 1.68519 4.94576 1.66785C5.17779 1.56332 5.52935 1.40535 5.97466 1.5741C6.27185 1.68566 6.53716 1.91394 6.95248 2.3241C7.80419 3.1641 8.9681 5.03488 9.39747 5.95363C9.68576 6.57285 9.87654 6.9816 9.87701 7.44003C9.87701 7.97675 9.60701 8.39066 9.27935 8.83738C9.21794 8.92128 9.15701 9.00144 9.09794 9.07925C8.74122 9.548 8.66294 9.68347 8.71451 9.92535C8.81904 10.4114 9.59857 11.8585 10.8797 13.1368C12.1608 14.415 13.5661 15.1453 14.054 15.2494C14.3062 15.3033 14.4445 15.2218 14.9283 14.8524C14.9976 14.7994 15.0689 14.7446 15.1434 14.6897C15.6431 14.318 16.0378 14.055 16.5618 14.055H16.5647C17.0208 14.055 17.4112 14.2528 18.0581 14.5791C18.9018 15.0047 20.8289 16.1536 21.674 17.0063C22.0851 17.4207 22.3143 17.685 22.4264 17.9818C22.5951 18.4285 22.4362 18.7786 22.3326 19.013C22.3153 19.0519 22.2961 19.0946 22.2759 19.1419C22.0786 19.6095 21.8387 20.058 21.5592 20.4816C21.0609 21.2269 20.5561 21.8039 19.7133 22.1963C19.2805 22.401 18.8068 22.5047 18.3281 22.4996Z" fill="white"/>
</svg>
