<svg width="50" height="50" viewBox="0 0 50 50" fill="none" xmlns="http://www.w3.org/2000/svg">
<rect width="50" height="50" rx="25" fill="#FF741F"/>
<path d="M26.9267 36.2434C29.8317 33.6108 35 28.2325 35 23.2968C35 20.5659 33.9464 17.9469 32.0711 16.0159C30.1957 14.0848 27.6522 13 25 13C22.3478 13 19.8043 14.0848 17.9289 16.0159C16.0536 17.9469 15 20.5659 15 23.2968C15 28.2325 20.1667 33.6108 23.0733 36.2434C23.6035 36.7307 24.2893 37 25 37C25.7107 37 26.3965 36.7307 26.9267 36.2434ZM21.6667 23.2968C21.6667 22.3865 22.0179 21.5135 22.643 20.8699C23.2681 20.2262 24.1159 19.8646 25 19.8646C25.8841 19.8646 26.7319 20.2262 27.357 20.8699C27.9821 21.5135 28.3333 22.3865 28.3333 23.2968C28.3333 24.2071 27.9821 25.0802 27.357 25.7238C26.7319 26.3675 25.8841 26.7291 25 26.7291C24.1159 26.7291 23.2681 26.3675 22.643 25.7238C22.0179 25.0802 21.6667 24.2071 21.6667 23.2968Z" fill="white"/>
</svg>
