<svg width="50" height="50" viewBox="0 0 50 50" fill="none" xmlns="http://www.w3.org/2000/svg">
<rect width="50" height="50" rx="25" fill="#FF741F"/>
<path d="M17 33C16.45 33 15.9793 32.8043 15.588 32.413C15.1967 32.0217 15.0007 31.5507 15 31V19C15 18.45 15.196 17.9793 15.588 17.588C15.98 17.1967 16.4507 17.0007 17 17H33C33.55 17 34.021 17.196 34.413 17.588C34.805 17.98 35.0007 18.4507 35 19V31C35 31.55 34.8043 32.021 34.413 32.413C34.0217 32.805 33.5507 33.0007 33 33H17ZM25 26L33 21V19L25 24L17 19V21L25 26Z" fill="white"/>
</svg>
